<svg width="94" height="84" viewBox="0 0 94 84" fill="none" xmlns="http://www.w3.org/2000/svg">
<path d="M39.7197 74.3245V4.80205L43.8794 0.642485V10.9141H53.8103V74.3245H49.6233V15.2911H42.2259L43.8794 16.9446V74.3245H39.7197Z" fill="white"/>
<path d="M43.9174 0.604492L43.8794 0.642485M43.8794 0.642485L39.7197 4.80205V74.3245H43.8794V16.9446L42.2259 15.2911H49.6233V74.3245H53.8103V10.9141H43.8794V0.642485Z" stroke="white" stroke-width="0.433022"/>
<path d="M34.0128 74.3243H29.6504V39.3019L34.0128 34.9395V74.3243Z" fill="white" stroke="white" stroke-width="0.433022"/>
<path d="M59.5175 74.3243H63.8799V39.3019L59.5175 34.9395V74.3243Z" fill="white" stroke="white" stroke-width="0.433022"/>
<path d="M89.7909 81.9587C87.6742 81.3801 84.6032 80.6226 80.6872 79.8731C72.6829 78.3412 61.1481 76.8426 47.0195 76.9741C32.8937 77.1055 21.3502 78.5526 13.3367 79.9673C9.3299 80.6746 6.20548 81.3739 4.08188 81.8966C3.93487 81.9328 3.79266 81.9681 3.65528 82.0025C17.3691 76.217 32.1169 73.2465 47.0211 73.2795C61.7233 73.3121 76.2604 76.2668 89.7909 81.9587Z" fill="white" stroke="white" stroke-width="0.433022"/>
</svg>
