<svg width="123" height="119" viewBox="0 0 123 119" fill="none" xmlns="http://www.w3.org/2000/svg">
<path d="M7.67206 89.6177V95.0864L2.83355 89.6177H0.312651L5.90336 95.8387L0.190672 103.178H2.75223L7.34678 97.2008L7.67206 97.5667V103.178H9.74571V97.5667L10.071 97.2008L14.6655 103.178H17.2271L11.5144 95.8387L17.1051 89.6177H14.5842L9.74571 95.0864V89.6177H7.67206ZM29.5711 103.178H31.8074L25.3832 88.8248L18.6337 103.178H20.87L22.354 99.9046H28.148L29.5711 103.178ZM23.2079 97.953L25.3019 93.3584L27.3145 97.953H23.2079ZM43.4818 103.178H45.5555V89.0485L36.4071 98.7865V89.6177H34.3334V103.788L43.4818 94.0496V103.178ZM36.59 86.2633C37.2812 87.9507 38.8873 88.3369 39.9445 88.3369C41.0016 88.3369 42.6077 87.9507 43.2989 86.2633L41.6725 85.5314C41.3472 86.6496 40.1071 86.6699 39.9445 86.6699C39.7818 86.6699 38.5417 86.6496 38.2164 85.5314L36.59 86.2633ZM59.6627 90.3496C58.4835 89.5974 57.2841 89.3738 56.044 89.3738C54.1736 89.3738 52.5472 89.821 51.1445 91.1425C50.006 92.2199 48.9692 93.948 48.9692 96.4485C48.9692 98.3596 49.5587 100.088 51.1445 101.572C51.9373 102.324 53.4824 103.442 55.9423 103.442C56.8775 103.442 58.3006 103.239 59.6627 102.426V99.9656C58.8901 100.697 57.6297 101.531 56.0033 101.531C53.1165 101.531 51.0428 99.3151 51.0428 96.4485C51.0428 93.4601 53.0351 91.2848 55.983 91.2848C56.7555 91.2848 58.1583 91.4271 59.6627 92.7892V90.3496ZM71.9954 103.178H74.2317L67.8075 88.8248L61.058 103.178H63.2943L64.7783 99.9046H70.5723L71.9954 103.178ZM65.6322 97.953L67.7262 93.3584L69.7388 97.953H65.6322ZM78.8314 89.6177H76.7577V103.178H78.8314V96.9365H84.6457V103.178H86.7193V89.6177H84.6457V94.9848H78.8314V89.6177ZM98.4251 103.178V93.704L108.265 104.011V89.6177H106.191V99.0101L96.3514 88.7029V103.178H98.4251ZM119.855 91.6507C119.57 91.0815 119.184 90.6139 118.818 90.2886C118.391 89.9227 117.557 89.3738 116.094 89.3738C113.552 89.3738 112.129 91.1221 112.129 92.9518C112.129 94.9848 113.776 95.92 114.894 96.3876L116.195 96.9365C117.09 97.3024 118.147 97.8716 118.147 99.2541C118.147 100.616 117.171 101.531 115.911 101.531C115.097 101.531 114.528 101.206 114.142 100.718C113.817 100.291 113.573 99.6607 113.573 98.9898L111.519 99.437C111.601 100.372 111.926 101.267 112.658 102.08C113.349 102.852 114.284 103.442 115.85 103.442C118.391 103.442 120.221 101.673 120.221 99.0914C120.221 97.5464 119.529 96.1233 117.029 95.1068L115.667 94.5579C114.345 94.0293 114.203 93.3177 114.203 92.9112C114.203 92.037 114.853 91.2848 116.114 91.2848C116.704 91.2848 117.151 91.4271 117.578 91.7727C117.883 92.037 118.066 92.3216 118.188 92.6265L119.855 91.6507Z" fill="white"/>
<path d="M7.47897 108.769V111.081L5.43361 108.769H4.36796L6.7313 111.399L4.3164 114.501H5.39923L7.34147 111.975L7.47897 112.13V114.501H8.35555V112.13L8.49306 111.975L10.4353 114.501H11.5181L9.10323 111.399L11.4666 108.769H10.4009L8.35555 111.081V108.769H7.47897ZM18.6829 114.501H19.5595V108.529L15.6922 112.645V108.769H14.8157V114.759L18.6829 110.643V114.501ZM24.062 108.769V112.19C24.062 112.688 24.0706 113.264 23.7784 113.548C23.6667 113.659 23.4862 113.745 23.2628 113.745C23.1425 113.745 23.0307 113.719 22.9448 113.694V114.501C23.0479 114.527 23.1768 114.553 23.3315 114.553C23.6925 114.553 24.0792 114.45 24.3714 114.209C24.9128 113.762 24.9386 113.101 24.9386 112.448V109.594H26.8465V114.501H27.723V108.769H24.062ZM34.3867 108.666C32.6679 108.666 31.4046 109.955 31.4046 111.64C31.4046 113.324 32.6679 114.613 34.3867 114.613C36.1055 114.613 37.3688 113.324 37.3688 111.64C37.3688 109.955 36.1055 108.666 34.3867 108.666ZM34.3867 113.805C33.1578 113.805 32.2812 112.912 32.2812 111.64C32.2812 110.368 33.1578 109.474 34.3867 109.474C35.6156 109.474 36.4922 110.368 36.4922 111.64C36.4922 112.912 35.6156 113.805 34.3867 113.805ZM44.9146 114.501H45.7912V108.529L41.9239 112.645V108.769H41.0474V114.759L44.9146 110.643V114.501ZM42.0013 107.351C42.2935 108.065 42.9724 108.228 43.4193 108.228C43.8662 108.228 44.5451 108.065 44.8373 107.351L44.1498 107.042C44.0123 107.515 43.488 107.523 43.4193 107.523C43.3505 107.523 42.8263 107.515 42.6888 107.042L42.0013 107.351ZM55.2043 108.769H54.3277V114.501H55.2043V112.13L55.3762 111.958L57.4215 114.501H58.5903L55.9863 111.365L58.5731 108.769H57.4215L55.2043 111.055V108.769ZM64.3799 108.666C62.6611 108.666 61.3978 109.955 61.3978 111.64C61.3978 113.324 62.6611 114.613 64.3799 114.613C66.0987 114.613 67.362 113.324 67.362 111.64C67.362 109.955 66.0987 108.666 64.3799 108.666ZM64.3799 113.805C63.151 113.805 62.2744 112.912 62.2744 111.64C62.2744 110.368 63.151 109.474 64.3799 109.474C65.6089 109.474 66.4855 110.368 66.4855 111.64C66.4855 112.912 65.6089 113.805 64.3799 113.805ZM71.5023 114.501L72.1039 111.038L73.7539 114.768L75.4212 111.047L76.0055 114.501H76.8993L75.8165 108.34L73.8055 112.791L71.8117 108.34L70.6085 114.501H71.5023ZM80.6769 108.769V114.501H81.5535V109.594H84.0114V114.501H84.8879V108.769H80.6769ZM89.3945 108.769V112.19C89.3945 112.688 89.4031 113.264 89.1109 113.548C88.9992 113.659 88.8187 113.745 88.5953 113.745C88.475 113.745 88.3632 113.719 88.2773 113.694V114.501C88.3804 114.527 88.5093 114.553 88.664 114.553C89.025 114.553 89.4117 114.45 89.7039 114.209C90.2453 113.762 90.2711 113.101 90.2711 112.448V109.594H92.179V114.501H93.0555V108.769H89.3945ZM100.175 108.769H97.0121V114.501H100.175V113.676H97.8887V111.872H100.106V111.047H97.8887V109.594H100.175V108.769ZM104.764 108.769H103.887V114.501H104.764V112.13L104.936 111.958L106.981 114.501H108.15L105.546 111.365L108.133 108.769H106.981L104.764 111.055V108.769ZM115.478 109.079C114.979 108.761 114.472 108.666 113.948 108.666C113.157 108.666 112.47 108.855 111.877 109.414C111.396 109.869 110.957 110.6 110.957 111.657C110.957 112.465 111.207 113.195 111.877 113.823C112.212 114.141 112.865 114.613 113.905 114.613C114.3 114.613 114.902 114.527 115.478 114.183V113.144C115.151 113.453 114.618 113.805 113.931 113.805C112.711 113.805 111.834 112.869 111.834 111.657C111.834 110.394 112.676 109.474 113.922 109.474C114.249 109.474 114.842 109.534 115.478 110.11V109.079Z" fill="white"/>
<path d="M53.7197 74.3245V4.80205L57.8794 0.642485V10.9141H67.8103V74.3245H63.6233V15.2911H56.2259L57.8794 16.9446V74.3245H53.7197Z" fill="white"/>
<path d="M57.9174 0.604492L57.8794 0.642485M57.8794 0.642485L53.7197 4.80205V74.3245H57.8794V16.9446L56.2259 15.2911H63.6233V74.3245H67.8103V10.9141H57.8794V0.642485Z" stroke="white" stroke-width="0.433022"/>
<path d="M48.0128 74.3243H43.6504V39.3019L48.0128 34.9395V74.3243Z" fill="white" stroke="white" stroke-width="0.433022"/>
<path d="M73.5175 74.3243H77.8799V39.3019L73.5175 34.9395V74.3243Z" fill="white" stroke="white" stroke-width="0.433022"/>
<path d="M18.0819 81.8966C17.9349 81.9328 17.7927 81.9681 17.6553 82.0025C31.3691 76.217 46.1169 73.2465 61.0211 73.2795C75.7233 73.3121 90.2604 76.2668 103.791 81.9587C101.674 81.3801 98.6032 80.6226 94.6872 79.8731C86.6829 78.3412 75.1481 76.8426 61.0195 76.9741C46.8937 77.1055 35.3502 78.5526 27.3367 79.9673C23.3299 80.6746 20.2055 81.3739 18.0819 81.8966Z" fill="white" stroke="white" stroke-width="0.433022"/>
</svg>
