<svg width="18" height="19" viewBox="0 0 18 19" fill="none" xmlns="http://www.w3.org/2000/svg">
<path d="M13.7247 18.4085C13.5474 18.4085 13.3803 18.3839 13.2279 18.336C10.5756 17.502 7.73111 15.7008 5.426 13.3942C3.12011 11.0892 1.31823 8.24429 0.483193 5.58954C0.285662 4.96506 0.514017 4.06662 0.992216 3.58839L3.01982 1.56034C3.41249 1.16702 3.93498 0.950195 4.49128 0.950195C5.04546 0.950195 5.56643 1.16552 5.95803 1.55712L7.57297 3.17251C7.96564 3.56453 8.18095 4.08679 8.17945 4.64314C8.17815 5.19732 7.96152 5.71868 7.56931 6.11094L6.75855 6.9217C6.67607 7.0044 6.67455 7.13789 6.75573 7.2193L11.6007 12.0644C11.6504 12.1141 11.7077 12.1245 11.7465 12.1245C11.7869 12.1245 11.8455 12.1137 11.8974 12.0616L12.709 11.2506C13.103 10.8566 13.6257 10.64 14.1816 10.64C14.7355 10.64 15.2561 10.8556 15.6476 11.2474L17.2622 12.8619C18.0716 13.6714 18.0703 14.9892 17.2594 15.7999L15.2328 17.8267C14.8317 18.2287 14.1862 18.4085 13.7247 18.4085Z" fill="white"/>
</svg>
